<svg width="164" height="46" viewBox="0 0 164 46" fill="none" xmlns="http://www.w3.org/2000/svg">
<path d="M57.616 31.384C57.216 31.384 56.816 31.328 56.416 31.216C56.016 31.12 55.64 30.92 55.288 30.616C54.952 30.296 54.688 29.84 54.496 29.248C54.304 28.656 54.208 27.872 54.208 26.896L54.256 20.344H52.48V19C52.912 18.984 53.352 18.824 53.8 18.52C54.248 18.216 54.64 17.808 54.976 17.296C55.312 16.784 55.544 16.232 55.672 15.64H56.8V19H60.496V20.248L56.8 20.296L56.752 26.704C56.752 27.312 56.8 27.848 56.896 28.312C57.008 28.76 57.184 29.112 57.424 29.368C57.68 29.608 58.024 29.728 58.456 29.728C58.824 29.728 59.2 29.616 59.584 29.392C59.984 29.168 60.36 28.8 60.712 28.288L61.528 29.008C61.144 29.568 60.76 30.008 60.376 30.328C59.992 30.648 59.624 30.88 59.272 31.024C58.92 31.184 58.6 31.28 58.312 31.312C58.024 31.36 57.792 31.384 57.616 31.384ZM70.8276 31C70.7956 30.744 70.7716 30.52 70.7556 30.328C70.7396 30.136 70.7156 29.936 70.6836 29.728C70.1396 30.272 69.5556 30.688 68.9316 30.976C68.3076 31.248 67.6596 31.384 66.9876 31.384C65.8356 31.384 64.9636 31.104 64.3716 30.544C63.7956 29.968 63.5076 29.256 63.5076 28.408C63.5076 27.672 63.7236 27.032 64.1556 26.488C64.5876 25.944 65.1556 25.504 65.8596 25.168C66.5636 24.816 67.3316 24.56 68.1636 24.4C68.9956 24.224 69.8116 24.136 70.6116 24.136V22.72C70.6116 22.208 70.5636 21.736 70.4676 21.304C70.3716 20.856 70.1716 20.496 69.8676 20.224C69.5796 19.936 69.1236 19.792 68.4996 19.792C68.0836 19.776 67.6676 19.856 67.2516 20.032C66.8356 20.192 66.5156 20.464 66.2916 20.848C66.4196 20.976 66.4996 21.128 66.5316 21.304C66.5796 21.464 66.6036 21.616 66.6036 21.76C66.6036 21.984 66.5076 22.24 66.3156 22.528C66.1236 22.8 65.7956 22.928 65.3316 22.912C64.9476 22.912 64.6516 22.784 64.4436 22.528C64.2516 22.256 64.1556 21.944 64.1556 21.592C64.1556 21.016 64.3636 20.504 64.7796 20.056C65.2116 19.608 65.7956 19.256 66.5316 19C67.2676 18.744 68.0916 18.616 69.0036 18.616C70.3796 18.616 71.4036 18.976 72.0756 19.696C72.7636 20.416 73.1076 21.552 73.1076 23.104C73.1076 23.68 73.1076 24.232 73.1076 24.76C73.1076 25.288 73.0996 25.816 73.0836 26.344C73.0836 26.872 73.0836 27.432 73.0836 28.024C73.0836 28.264 73.0756 28.536 73.0596 28.84C73.0436 29.144 73.0196 29.464 72.9876 29.8C73.2596 29.784 73.5396 29.768 73.8276 29.752C74.1156 29.736 74.3876 29.728 74.6436 29.728V31H70.8276ZM70.6116 25.24C70.0996 25.272 69.5716 25.344 69.0276 25.456C68.4996 25.568 68.0196 25.736 67.5876 25.96C67.1556 26.184 66.8036 26.472 66.5316 26.824C66.2756 27.176 66.1476 27.6 66.1476 28.096C66.1796 28.64 66.3556 29.04 66.6756 29.296C67.0116 29.552 67.4036 29.68 67.8516 29.68C68.4116 29.68 68.9076 29.576 69.3396 29.368C69.7716 29.144 70.1956 28.84 70.6116 28.456C70.5956 28.28 70.5876 28.104 70.5876 27.928C70.5876 27.736 70.5876 27.536 70.5876 27.328C70.5876 27.184 70.5876 26.92 70.5876 26.536C70.6036 26.136 70.6116 25.704 70.6116 25.24ZM81.8363 31.384C81.4363 31.384 81.0363 31.328 80.6363 31.216C80.2363 31.12 79.8603 30.92 79.5083 30.616C79.1723 30.296 78.9083 29.84 78.7163 29.248C78.5243 28.656 78.4283 27.872 78.4283 26.896L78.4763 20.344H76.7003V19C77.1323 18.984 77.5723 18.824 78.0203 18.52C78.4683 18.216 78.8603 17.808 79.1963 17.296C79.5323 16.784 79.7643 16.232 79.8923 15.64H81.0203V19H84.7163V20.248L81.0203 20.296L80.9723 26.704C80.9723 27.312 81.0203 27.848 81.1163 28.312C81.2283 28.76 81.4043 29.112 81.6443 29.368C81.9003 29.608 82.2443 29.728 82.6763 29.728C83.0443 29.728 83.4203 29.616 83.8043 29.392C84.2043 29.168 84.5803 28.8 84.9323 28.288L85.7483 29.008C85.3643 29.568 84.9803 30.008 84.5963 30.328C84.2123 30.648 83.8443 30.88 83.4923 31.024C83.1403 31.184 82.8203 31.28 82.5323 31.312C82.2443 31.36 82.0123 31.384 81.8363 31.384ZM92.716 31.384C92.316 31.384 91.916 31.328 91.516 31.216C91.116 31.12 90.74 30.92 90.388 30.616C90.052 30.296 89.788 29.84 89.596 29.248C89.404 28.656 89.308 27.872 89.308 26.896L89.356 20.344H87.58V19C88.012 18.984 88.452 18.824 88.9 18.52C89.348 18.216 89.74 17.808 90.076 17.296C90.412 16.784 90.644 16.232 90.772 15.64H91.9V19H95.596V20.248L91.9 20.296L91.852 26.704C91.852 27.312 91.9 27.848 91.996 28.312C92.108 28.76 92.284 29.112 92.524 29.368C92.78 29.608 93.124 29.728 93.556 29.728C93.924 29.728 94.3 29.616 94.684 29.392C95.084 29.168 95.46 28.8 95.812 28.288L96.628 29.008C96.244 29.568 95.86 30.008 95.476 30.328C95.092 30.648 94.724 30.88 94.372 31.024C94.02 31.184 93.7 31.28 93.412 31.312C93.124 31.36 92.892 31.384 92.716 31.384ZM104.776 31.384C103.64 31.384 102.616 31.128 101.704 30.616C100.792 30.104 100.064 29.392 99.5196 28.48C98.9916 27.552 98.7276 26.488 98.7276 25.288C98.7276 23.992 98.9916 22.848 99.5196 21.856C100.064 20.848 100.792 20.056 101.704 19.48C102.616 18.904 103.632 18.616 104.752 18.616C105.888 18.616 106.912 18.88 107.824 19.408C108.736 19.92 109.456 20.64 109.984 21.568C110.528 22.48 110.8 23.536 110.8 24.736C110.8 26 110.536 27.136 110.008 28.144C109.48 29.152 108.76 29.944 107.848 30.52C106.952 31.096 105.928 31.384 104.776 31.384ZM104.944 30.184C105.712 30.168 106.312 29.928 106.744 29.464C107.192 29 107.512 28.408 107.704 27.688C107.896 26.952 107.992 26.192 107.992 25.408C107.992 24.72 107.928 24.048 107.8 23.392C107.688 22.72 107.504 22.112 107.248 21.568C106.992 21.024 106.656 20.592 106.24 20.272C105.824 19.936 105.32 19.776 104.728 19.792C103.976 19.792 103.36 20.024 102.88 20.488C102.416 20.952 102.072 21.552 101.848 22.288C101.64 23.008 101.536 23.776 101.536 24.592C101.536 25.536 101.656 26.432 101.896 27.28C102.136 28.128 102.504 28.824 103 29.368C103.512 29.912 104.16 30.184 104.944 30.184ZM119.874 31.384C118.738 31.384 117.714 31.128 116.802 30.616C115.89 30.104 115.162 29.392 114.618 28.48C114.09 27.552 113.826 26.488 113.826 25.288C113.826 23.992 114.09 22.848 114.618 21.856C115.162 20.848 115.89 20.056 116.802 19.48C117.714 18.904 118.73 18.616 119.85 18.616C120.986 18.616 122.01 18.88 122.922 19.408C123.834 19.92 124.554 20.64 125.082 21.568C125.626 22.48 125.898 23.536 125.898 24.736C125.898 26 125.634 27.136 125.106 28.144C124.578 29.152 123.858 29.944 122.946 30.52C122.05 31.096 121.026 31.384 119.874 31.384ZM120.042 30.184C120.81 30.168 121.41 29.928 121.842 29.464C122.29 29 122.61 28.408 122.802 27.688C122.994 26.952 123.09 26.192 123.09 25.408C123.09 24.72 123.026 24.048 122.898 23.392C122.786 22.72 122.602 22.112 122.346 21.568C122.09 21.024 121.754 20.592 121.338 20.272C120.922 19.936 120.418 19.776 119.826 19.792C119.074 19.792 118.458 20.024 117.978 20.488C117.514 20.952 117.17 21.552 116.946 22.288C116.738 23.008 116.634 23.776 116.634 24.592C116.634 25.536 116.754 26.432 116.994 27.28C117.234 28.128 117.602 28.824 118.098 29.368C118.61 29.912 119.258 30.184 120.042 30.184ZM130.916 31.384C130.484 31.384 130.116 31.224 129.812 30.904C129.524 30.584 129.38 30.192 129.38 29.728C129.38 29.28 129.532 28.896 129.836 28.576C130.156 28.24 130.516 28.072 130.916 28.072C131.348 28.072 131.708 28.24 131.996 28.576C132.284 28.896 132.428 29.28 132.428 29.728C132.428 30.192 132.276 30.584 131.972 30.904C131.684 31.224 131.332 31.384 130.916 31.384Z" fill="#F2F2F2"/>
<path d="M136.753 16.48C136.753 16.208 136.753 15.936 136.753 15.664C136.769 15.376 136.793 15.072 136.825 14.752C136.537 14.768 136.241 14.784 135.937 14.8C135.649 14.8 135.377 14.808 135.121 14.824V13.552C135.841 13.552 136.417 13.52 136.849 13.456C137.281 13.376 137.609 13.288 137.833 13.192C138.073 13.096 138.249 12.992 138.361 12.88H139.249V19.984C139.729 19.536 140.265 19.2 140.857 18.976C141.465 18.736 142.097 18.616 142.753 18.616C143.745 18.616 144.633 18.864 145.417 19.36C146.217 19.856 146.841 20.56 147.289 21.472C147.753 22.384 147.985 23.464 147.985 24.712C147.985 26.04 147.705 27.208 147.145 28.216C146.601 29.224 145.873 30.008 144.961 30.568C144.049 31.112 143.025 31.384 141.889 31.384C141.377 31.384 140.793 31.288 140.137 31.096C139.497 30.904 138.913 30.512 138.385 29.92L137.761 31H136.705L136.753 16.48ZM139.249 27.28C139.249 28.032 139.369 28.616 139.609 29.032C139.849 29.432 140.153 29.72 140.521 29.896C140.905 30.056 141.305 30.136 141.721 30.136C142.473 30.152 143.105 29.944 143.617 29.512C144.129 29.08 144.513 28.496 144.769 27.76C145.041 27.008 145.177 26.16 145.177 25.216C145.177 24.256 145.057 23.392 144.817 22.624C144.577 21.856 144.209 21.248 143.713 20.8C143.217 20.336 142.593 20.112 141.841 20.128C141.345 20.128 140.865 20.24 140.401 20.464C139.953 20.688 139.569 20.992 139.249 21.376V27.28ZM156.723 37.504C155.315 37.504 154.179 37.344 153.315 37.024C152.467 36.72 151.851 36.32 151.467 35.824C151.099 35.344 150.915 34.832 150.915 34.288C150.915 33.856 151.011 33.456 151.203 33.088C151.411 32.72 151.683 32.392 152.019 32.104C152.355 31.832 152.731 31.616 153.147 31.456C152.587 31.28 152.163 31.032 151.875 30.712C151.587 30.376 151.443 29.968 151.443 29.488C151.443 28.976 151.643 28.472 152.043 27.976C152.459 27.48 153.051 27.144 153.819 26.968C153.099 26.648 152.523 26.184 152.091 25.576C151.659 24.968 151.435 24.248 151.419 23.416C151.403 22.456 151.643 21.616 152.139 20.896C152.651 20.176 153.299 19.616 154.083 19.216C154.883 18.816 155.715 18.616 156.579 18.616C157.075 18.616 157.587 18.688 158.115 18.832C158.643 18.96 159.123 19.168 159.555 19.456C159.731 18.992 159.963 18.568 160.251 18.184C160.539 17.8 160.875 17.496 161.259 17.272C161.659 17.048 162.075 16.936 162.507 16.936C162.971 16.936 163.323 17.056 163.563 17.296C163.803 17.536 163.923 17.856 163.923 18.256C163.923 18.384 163.883 18.544 163.803 18.736C163.739 18.912 163.619 19.064 163.443 19.192C163.267 19.32 163.027 19.384 162.723 19.384C162.467 19.384 162.235 19.304 162.027 19.144C161.835 18.968 161.715 18.76 161.667 18.52C161.331 18.584 161.051 18.784 160.827 19.12C160.619 19.44 160.483 19.768 160.419 20.104C160.835 20.472 161.155 20.912 161.379 21.424C161.619 21.92 161.739 22.456 161.739 23.032C161.739 23.944 161.491 24.752 160.995 25.456C160.515 26.16 159.883 26.712 159.099 27.112C158.315 27.512 157.467 27.712 156.555 27.712C156.283 27.712 156.027 27.696 155.787 27.664C155.547 27.616 155.283 27.592 154.995 27.592C154.483 27.592 154.059 27.712 153.723 27.952C153.403 28.192 153.283 28.48 153.363 28.816C153.443 29.168 153.779 29.4 154.371 29.512C154.963 29.624 155.819 29.704 156.939 29.752C158.171 29.8 159.227 29.952 160.107 30.208C161.003 30.448 161.691 30.824 162.171 31.336C162.667 31.848 162.915 32.544 162.915 33.424C162.915 34.08 162.731 34.664 162.363 35.176C162.011 35.688 161.531 36.112 160.923 36.448C160.331 36.8 159.667 37.064 158.931 37.24C158.195 37.416 157.459 37.504 156.723 37.504ZM156.939 36.328C158.235 36.328 159.235 36.088 159.939 35.608C160.659 35.128 161.019 34.584 161.019 33.976C161.019 33.464 160.843 33.064 160.491 32.776C160.139 32.504 159.643 32.304 159.003 32.176C158.379 32.064 157.643 32 156.795 31.984C156.379 31.952 155.955 31.928 155.523 31.912C155.091 31.896 154.691 31.856 154.323 31.792C153.955 32.048 153.667 32.36 153.459 32.728C153.267 33.096 153.163 33.48 153.147 33.88C153.147 34.616 153.491 35.208 154.179 35.656C154.867 36.104 155.787 36.328 156.939 36.328ZM156.627 26.584C157.171 26.584 157.619 26.448 157.971 26.176C158.339 25.888 158.611 25.512 158.787 25.048C158.979 24.568 159.075 24.048 159.075 23.488C159.075 22.832 158.979 22.216 158.787 21.64C158.595 21.064 158.315 20.6 157.947 20.248C157.579 19.896 157.107 19.72 156.531 19.72C155.747 19.72 155.139 20.032 154.707 20.656C154.275 21.28 154.059 22.032 154.059 22.912C154.059 23.616 154.155 24.248 154.347 24.808C154.555 25.352 154.851 25.784 155.235 26.104C155.619 26.424 156.083 26.584 156.627 26.584Z" fill="white"/>
<path d="M46.518 15.194L46.1476 14.9718L46.7402 14.0088C46.8883 13.7866 46.8143 13.4903 46.592 13.4162L45.2587 12.5274C45.0365 12.3792 44.7402 12.4533 44.6661 12.6755L44.0735 13.6385L43.7032 13.4162L43.1106 13.0459L41.9254 12.3052L41.6291 12.0089L40.7402 11.4903C40.6662 11.12 40.2958 10.6015 39.6292 10.083L39.9254 9.63852C40.1477 9.26815 40.0736 8.82371 39.7032 8.60149L38.8884 8.08298C38.5181 7.86076 38.0736 7.93483 37.8514 8.3052L37.5551 8.82371C36.8884 8.52742 36.2959 8.37927 35.9255 8.45335L34.8885 7.78669L34.8144 7.56447L33.7774 2.60157C33.9255 2.52749 34.0737 2.37935 34.1477 2.2312C34.2218 2.08305 34.2959 1.86083 34.37 1.71269L35.9255 1.41639C36.2218 1.34232 36.444 1.04603 36.3699 0.749736C36.2959 0.453443 35.9996 0.231224 35.7033 0.305297L34.0737 0.601589C33.9996 0.453443 33.8514 0.305297 33.7033 0.231224C33.0366 -0.213216 32.1478 0.00900399 31.7033 0.675663C31.6292 0.823809 31.5552 1.04603 31.4811 1.19417L29.9256 1.49047C29.7774 1.49047 29.6293 1.63861 29.5552 1.78676L29.1848 1.41639L28.9626 1.56454L29.6293 2.37935L30.4441 3.41637L29.7774 4.37932L27.5552 2.97193C27.1849 2.74971 26.7404 2.82378 26.5182 3.19415L25.9256 4.08303C25.7034 4.45339 25.7775 4.89783 26.1478 5.12005L26.5182 5.34227L20.8886 14.0829L18.9627 12.7496C18.6664 12.6014 18.2961 12.6755 18.1479 12.8977L17.6294 13.7125L15.8517 12.5274L15.1109 12.0829L14.8887 12.0089C14.5924 11.7866 14.222 11.9348 13.9998 12.157L13.7035 12.5274L12.0739 11.4903L12.5184 10.8237C12.5924 10.6755 12.5924 10.4533 12.4443 10.3792C12.2961 10.3052 12.0739 10.3052 11.9999 10.4533L11.5554 11.12L11.4813 11.0459C11.111 10.8237 10.6665 10.8978 10.4443 11.2681L9.77766 12.3052C9.55544 12.6755 9.62951 13.12 9.99988 13.3422L10.074 13.4162L9.62951 14.157C9.55544 14.3051 9.55544 14.5273 9.70359 14.6014C9.85173 14.6755 10.074 14.6755 10.148 14.5273L10.5925 13.8607L12.2221 14.8977L11.9258 15.2681C11.7036 15.5644 11.8517 15.9347 12.0739 16.157L12.2961 16.3051L13.0369 16.7495L14.8146 17.9347L14.5183 18.4532C12.0739 17.1199 11.2591 18.0088 11.0369 18.3051L2.51849 31.4901C1.99998 32.379 2.66663 33.7864 4.88883 35.4901L3.70366 37.3419C4.1481 37.6382 4.59254 38.453 3.77773 39.6382C3.037 40.8233 1.99998 40.527 1.99998 40.527L0 45.7122C0 45.7122 4.44439 41.1196 5.11105 40.0826C5.55549 39.4159 6.51844 37.9345 7.11103 36.8974C9.55544 38.2308 11.5554 38.7493 12.0739 37.8604L20.5923 24.7494C21.0368 24.0828 20.5923 22.8235 19.3331 21.5643L20.2961 20.1569L21.0368 18.9717L22.6664 20.0828C22.4442 20.4532 22.6664 21.1199 23.259 21.4902C23.8516 21.8606 24.5182 21.8606 24.7404 21.4902L28.5182 23.9346C28.296 24.305 28.5182 24.9717 29.1108 25.342C29.7033 25.7124 30.37 25.7124 30.5922 25.342L34.1477 27.6383C33.9996 27.8605 34.0737 28.1568 34.37 28.5272L34.1477 28.8235C33.9996 29.0457 34.0737 29.342 34.2959 29.4161L35.6292 30.3049C35.8514 30.4531 36.1477 30.379 36.2218 30.1568L36.3699 29.9346C36.8884 30.0827 37.2588 30.0086 37.407 29.7864C37.5551 29.8605 37.7032 29.8605 37.7773 29.7123L38.2218 29.0457C38.2958 28.8975 38.2958 28.7494 38.1477 28.6753L37.481 28.2309L40.1477 24.1569C40.2958 23.9346 40.2217 23.6383 39.9995 23.5643L38.6662 22.6754C38.444 22.5273 38.1477 22.6013 38.0736 22.8235L35.5551 26.7494L35.1848 26.5272L41.7032 16.4533L42.0736 16.6755C41.9995 16.8977 41.9995 17.1199 42.2217 17.2681L43.555 18.1569C43.7772 18.3051 43.9995 18.231 44.1476 18.0829L44.518 18.3051C44.9624 18.6014 45.4809 18.4532 45.7772 18.0088L46.8142 16.4533C47.0365 16.0088 46.9624 15.4903 46.518 15.194ZM36.1477 0.675663C36.2218 0.971955 35.8514 1.1201 35.8514 0.823809C35.8514 0.527516 35.8514 0.453443 35.6292 0.37937C35.7033 0.37937 36.1477 0.37937 36.1477 0.675663ZM34.5181 0.823809C34.5181 0.823809 34.5922 0.749736 34.6662 0.749736H34.7403H34.8144C34.8885 0.749736 34.8885 0.749736 34.9625 0.749736C35.0366 0.749736 35.0366 0.749736 35.1107 0.749736C35.1848 0.749736 35.2588 0.823809 35.2588 0.823809C35.2588 0.823809 35.0366 0.897882 34.8885 0.897882C34.5922 0.897882 34.37 0.897882 34.37 0.897882C34.37 0.897882 34.444 0.823809 34.5181 0.823809ZM9.92581 12.4533L10.5925 11.4163C10.7406 11.1941 11.111 11.12 11.3332 11.2681C10.8888 11.12 9.92581 12.4533 9.92581 12.4533ZM1.40739 43.0455C1.1111 43.7863 0.814805 44.527 0.814805 44.527C0.814805 44.527 0.814805 44.4529 0.814805 44.3788C0.814805 44.3048 0.888878 44.1566 0.888878 44.0085C0.962951 43.8603 0.962951 43.7122 1.03702 43.49C1.03702 43.4159 1.1111 43.3418 1.1111 43.1937C1.1111 43.1196 1.18517 43.0455 1.18517 42.8974C1.25924 42.7492 1.33332 42.527 1.40739 42.3789C1.48146 42.2307 1.55554 42.0826 1.62961 41.9344C1.70368 41.7863 1.77776 41.7122 1.85183 41.6381C1.9259 41.5641 1.9259 41.49 1.9259 41.49C1.99998 41.5641 1.70368 42.3048 1.40739 43.0455ZM4.66661 38.8233C4.66661 38.9715 4.59254 39.1196 4.51846 39.2678C4.51846 39.3419 4.44439 39.4159 4.44439 39.49C4.44439 39.5641 4.37032 39.6382 4.29624 39.7122L4.22217 39.7863L4.1481 39.8604C4.07402 39.9344 4.07402 40.0085 3.99995 40.0826C3.99995 40.1567 3.92588 40.1567 3.92588 40.2307C3.85181 40.3048 3.85181 40.3048 3.77773 40.3789C3.70366 40.453 3.55551 40.6011 3.40737 40.6752C3.25922 40.7493 3.18515 40.8233 3.037 40.8233C3.037 40.8974 2.96293 40.8974 2.88885 40.8974C2.81478 40.8974 2.81478 40.8974 2.74071 40.8974C2.66663 40.8974 2.59256 40.8974 2.51849 40.8974C2.44441 40.8974 2.37034 40.8974 2.37034 40.8974H2.29627C2.29627 40.8974 2.37034 40.8974 2.51849 40.8974C2.59256 40.8974 2.66663 40.8974 2.74071 40.8233C2.81478 40.8233 2.88885 40.7493 3.037 40.6752C3.11107 40.6011 3.25922 40.527 3.33329 40.453C3.40737 40.3789 3.55551 40.3048 3.62959 40.1567C3.70366 40.2307 3.70366 40.1567 3.77773 40.1567C3.85181 40.0826 3.85181 40.0085 3.92588 40.0085C3.99995 39.9344 3.99995 39.8604 4.07402 39.7863L4.1481 39.7122L4.22217 39.6382C4.29624 39.5641 4.29624 39.49 4.37032 39.4159C4.37032 39.3419 4.44439 39.2678 4.44439 39.1937C4.44439 39.1196 4.51846 39.0456 4.51846 38.9715C4.51846 38.8974 4.51846 38.8233 4.59254 38.7493C4.59254 38.6011 4.59254 38.453 4.59254 38.3789C4.59254 38.2308 4.59254 38.1567 4.51846 38.0085C4.51846 37.9345 4.44439 37.7863 4.44439 37.7122C4.37032 37.6382 4.37032 37.5641 4.29624 37.49C4.22217 37.3419 4.1481 37.3419 4.1481 37.3419C4.1481 37.3419 4.22217 37.416 4.29624 37.49C4.37032 37.5641 4.37032 37.6382 4.44439 37.7122C4.44439 37.7863 4.51846 37.7863 4.51846 37.8604C4.51846 37.9345 4.59254 37.9345 4.59254 38.0085C4.66661 38.1567 4.66661 38.2308 4.66661 38.3789C4.66661 38.5271 4.66661 38.6752 4.66661 38.8233ZM13.4813 16.157L14.0739 15.2681L14.3702 15.4162L13.9998 15.9347L15.4813 16.8977L15.2591 17.194L13.4813 16.157ZM13.9258 18.6014C13.9258 18.6014 13.9258 18.6754 13.9258 18.6014C13.9998 18.6754 13.9998 18.6754 13.9998 18.6754C14.0739 18.7495 14.148 18.8236 14.2961 18.8977C14.3702 18.9717 14.4443 18.9717 14.5183 19.0458C14.5924 19.1199 14.6665 19.194 14.7406 19.194C14.8887 19.3421 15.0369 19.4162 15.2591 19.5643C15.4072 19.7125 15.5554 19.7865 15.7035 19.9347C15.8517 20.0828 15.9998 20.1569 16.148 20.3051C16.2961 20.3791 16.3702 20.5273 16.4442 20.5273C16.5183 20.6013 16.5183 20.6013 16.5183 20.6013C16.5183 20.6013 16.3702 20.4532 16.0739 20.3051C15.7776 20.1569 15.4813 19.8606 15.1109 19.6384C14.9628 19.4902 14.8146 19.3421 14.6665 19.268C14.5183 19.1199 14.3702 19.0458 14.2961 18.8977C14.222 18.7495 14.0739 18.6754 14.0739 18.6014C13.9258 18.6754 13.8517 18.6754 13.9258 18.6014ZM7.48139 36.3789C7.48139 36.3789 7.40732 36.3049 7.25917 36.2308C7.1851 36.1567 7.11102 36.1567 6.96288 36.0826C6.88881 36.0086 6.74066 35.9345 6.59251 35.8604C6.44437 35.7864 6.29622 35.7123 6.14807 35.5641C5.99993 35.4901 5.85178 35.3419 5.70363 35.2678C5.55549 35.1197 5.40734 35.0456 5.2592 34.8975C5.11105 34.7493 4.9629 34.6012 4.81476 34.5271C4.66661 34.379 4.51846 34.2308 4.37032 34.0827C4.22217 33.9345 4.07402 33.7864 3.99995 33.6382C3.85181 33.4901 3.77773 33.3419 3.62959 33.1938C3.48144 33.0456 3.40737 32.8975 3.33329 32.8234C3.18515 32.6012 3.037 32.379 2.88885 32.2308C2.81478 32.0827 2.74071 32.0086 2.74071 32.0086C2.74071 32.0086 2.74071 32.0086 2.81478 32.0827C2.81478 32.0827 2.88885 32.1568 2.96293 32.2308C3.037 32.3049 3.11107 32.379 3.18515 32.4531C3.25922 32.5271 3.33329 32.6753 3.48144 32.7493C3.62959 32.7493 3.70366 32.8975 3.85181 33.0456C3.99995 33.1938 4.07402 33.2679 4.22217 33.416C4.37032 33.5642 4.51846 33.6382 4.66661 33.7864C4.81476 33.9345 4.9629 34.0827 5.11105 34.1567C5.2592 34.3049 5.40734 34.453 5.55549 34.5271C5.70363 34.7493 5.77771 34.8234 5.92585 34.9715C6.074 35.1197 6.22215 35.1938 6.37029 35.3419C6.51844 35.4901 6.59251 35.5641 6.74066 35.6382C6.88881 35.7123 6.96288 35.8604 7.03695 35.9345C7.11102 36.0086 7.1851 36.0826 7.25917 36.1567C7.40732 36.2308 7.48139 36.3049 7.48139 36.3789ZM6.37029 34.0827C5.40734 33.4901 5.2592 33.1938 4.44439 32.4531C3.62959 31.7123 4.1481 31.2679 4.81476 31.7864C4.81476 31.7864 5.48141 32.6753 6.96288 33.4901C8.44434 34.379 7.40732 34.7493 6.37029 34.0827ZM9.25915 33.5642C9.25915 33.5642 9.18507 33.4901 9.03693 33.416C8.96285 33.3419 8.88878 33.3419 8.74063 33.2679C8.66656 33.1938 8.51842 33.1197 8.37027 33.0456C8.22212 32.9716 8.07398 32.8975 7.92583 32.7493C7.77768 32.6753 7.62954 32.5271 7.48139 32.4531C7.33324 32.3049 7.1851 32.2308 7.03695 32.0827C6.88881 31.9345 6.74066 31.8605 6.59251 31.7123C6.44437 31.5642 6.29622 31.416 6.14807 31.2679C5.99993 31.1197 5.85178 30.9716 5.70363 30.8234C5.55549 30.6753 5.48141 30.5272 5.33327 30.4531C5.18512 30.3049 5.11105 30.1568 5.03698 30.0827C4.81476 29.8605 4.66661 29.6383 4.59254 29.4901C4.51846 29.342 4.44439 29.2679 4.44439 29.2679C4.44439 29.2679 4.44439 29.2679 4.51846 29.342C4.51846 29.342 4.59254 29.4161 4.66661 29.4901C4.74068 29.5642 4.81476 29.6383 4.88883 29.7123C4.9629 29.7864 5.03698 29.8605 5.18512 30.0086C5.2592 30.0827 5.40734 30.2309 5.55549 30.379C5.70363 30.5272 5.77771 30.6012 5.92585 30.7494C6.074 30.8975 6.22215 30.9716 6.37029 31.1197C6.51844 31.2679 6.66659 31.416 6.81473 31.4901C6.96288 31.6383 7.11103 31.7864 7.25917 31.8605C7.40732 32.0086 7.55546 32.0827 7.70361 32.2308C7.85176 32.379 7.9999 32.4531 8.14805 32.6012C8.2962 32.6753 8.37027 32.8234 8.51842 32.8975C8.66656 32.9716 8.74063 33.1197 8.81471 33.1938C8.88878 33.2679 8.96285 33.3419 9.03693 33.416C9.25915 33.416 9.33322 33.4901 9.25915 33.5642ZM8.14805 31.416C7.11102 30.7494 7.03695 30.5272 6.22215 29.7864C5.40734 29.0457 5.92585 28.6012 6.59251 29.1198C6.59251 29.1198 7.25917 30.0086 8.74063 30.8234C10.148 31.7123 9.18507 32.0086 8.14805 31.416ZM11.111 30.7494C11.111 30.7494 11.0369 30.6753 10.8888 30.6012C10.8147 30.5272 10.7406 30.5272 10.5925 30.4531C10.5184 30.379 10.3702 30.3049 10.2221 30.2309C10.074 30.1568 9.92581 30.0827 9.77766 29.9346C9.62951 29.8605 9.48137 29.7123 9.33322 29.6383C9.18507 29.4901 9.03693 29.4161 8.88878 29.2679C8.74063 29.1198 8.59249 29.0457 8.44434 28.8975C8.2962 28.7494 8.14805 28.6012 7.9999 28.5272C7.85176 28.379 7.70361 28.2309 7.55546 28.1568C7.40732 28.0087 7.25917 27.8605 7.1851 27.7864C7.03695 27.6383 6.96288 27.5642 6.88881 27.4161C6.66659 27.1939 6.51844 26.9716 6.44437 26.8235C6.37029 26.6753 6.29622 26.6013 6.29622 26.6013C6.29622 26.6013 6.29622 26.6013 6.37029 26.6753C6.37029 26.6753 6.44437 26.7494 6.51844 26.8235C6.59251 26.7494 6.66659 26.8235 6.74066 26.8976C6.81473 26.9716 6.96288 27.0457 7.03695 27.1939C7.11102 27.2679 7.25917 27.4161 7.40732 27.4902C7.55546 27.6383 7.70361 27.7124 7.77768 27.8605C7.92583 28.0087 8.07398 28.0827 8.22212 28.2309C8.37027 28.379 8.51842 28.4531 8.66656 28.6013C8.81471 28.7494 8.96285 28.8235 9.111 28.9716C9.25915 29.1198 9.40729 29.1938 9.55544 29.342C9.70359 29.4901 9.85173 29.5642 9.99988 29.7123C10.148 29.7864 10.2221 29.9346 10.3702 30.0086C10.5184 30.0827 10.5925 30.2309 10.6665 30.3049C10.7406 30.379 10.8147 30.4531 10.8888 30.5272C11.0369 30.6753 11.111 30.7494 11.111 30.7494ZM9.92581 28.6753C8.88878 28.0087 8.81471 27.7864 7.9999 27.0457C7.1851 26.305 7.70361 25.8605 8.37027 26.3791C8.37027 26.3791 9.03693 27.2679 10.5184 28.0827C11.9258 28.9716 10.9628 29.2679 9.92581 28.6753ZM12.8887 27.9346C12.8887 27.9346 12.8147 27.8605 12.6665 27.7864C12.5924 27.7124 12.5184 27.7124 12.3702 27.6383C12.2961 27.5642 12.148 27.4902 11.9999 27.4161C11.8517 27.342 11.7036 27.2679 11.6295 27.1198C11.4813 27.0457 11.3332 26.8976 11.1851 26.8235C11.0369 26.6753 10.8888 26.6013 10.7406 26.4531C10.5925 26.305 10.4443 26.2309 10.2962 26.0828C10.148 25.9346 9.99988 25.7865 9.85173 25.7124C9.70359 25.5642 9.55544 25.4161 9.40729 25.342C9.25915 25.1939 9.111 25.0457 9.03693 24.9717C8.88878 24.8235 8.81471 24.7494 8.74063 24.6013C8.51842 24.3791 8.37027 24.1569 8.2962 24.0087C8.22212 23.8606 8.14805 23.7865 8.14805 23.7865C8.14805 23.7865 8.14805 23.7865 8.22212 23.8606C8.22212 23.8606 8.2962 23.9346 8.37027 24.0087C8.44434 24.0828 8.51842 24.1569 8.59249 24.2309C8.66656 24.305 8.81471 24.3791 8.88878 24.5272C9.03693 24.6013 9.111 24.7494 9.25915 24.8235C9.40729 24.8976 9.55544 25.0457 9.62951 25.1939C9.77766 25.342 9.92581 25.4161 10.074 25.5642C10.2221 25.7124 10.3702 25.7865 10.5184 25.9346C10.6665 26.0828 10.8147 26.1568 10.9628 26.305C11.111 26.4531 11.2591 26.5272 11.4073 26.6753C11.5554 26.8235 11.7036 26.8976 11.8517 27.0457C11.9999 27.1198 12.0739 27.2679 12.2221 27.342C12.3702 27.4161 12.4443 27.5642 12.5184 27.6383C12.5924 27.7124 12.6665 27.7864 12.7406 27.8605C12.8887 27.8605 12.9628 27.9346 12.8887 27.9346ZM11.7036 25.9346C10.6665 25.268 10.5925 25.0457 9.77766 24.305C8.96285 23.5643 9.48137 23.1198 10.148 23.6383C10.148 23.6383 10.8147 24.5272 12.2961 25.342C13.7035 26.2309 12.7406 26.6013 11.7036 25.9346ZM14.7406 25.1939C14.7406 25.1939 14.6665 25.1198 14.5183 25.0457C14.4443 24.9717 14.3702 24.9717 14.2221 24.8976C14.148 24.8235 13.9998 24.7494 13.8517 24.6754C13.7035 24.6013 13.5554 24.5272 13.4813 24.3791C13.3332 24.305 13.185 24.1569 13.0369 24.0828C12.8887 24.0087 12.7406 23.8606 12.5924 23.7124C12.4443 23.5643 12.2961 23.4902 12.148 23.3421C11.9999 23.1939 11.8517 23.1198 11.7036 22.9717C11.5554 22.8235 11.4073 22.7495 11.2591 22.6013C11.111 22.4532 10.9628 22.3791 10.8888 22.231C10.7406 22.0828 10.6665 22.0087 10.5184 21.8606C10.2962 21.6384 10.148 21.4162 9.99988 21.3421C9.92581 21.1939 9.85173 21.1199 9.85173 21.1199C9.85173 21.1199 9.85173 21.1199 9.92581 21.1939C9.92581 21.1939 9.99988 21.268 10.074 21.3421C10.148 21.4162 10.2221 21.4902 10.2962 21.5643C10.3702 21.6384 10.5184 21.7124 10.5925 21.7865C10.7406 21.8606 10.8147 22.0087 10.9628 22.0828C11.111 22.1569 11.2591 22.305 11.4073 22.4532C11.5554 22.6013 11.7036 22.6754 11.8517 22.8235C11.9999 22.9717 12.148 23.0458 12.2961 23.1939C12.4443 23.3421 12.5924 23.4161 12.7406 23.5643C12.8887 23.7124 13.0369 23.7865 13.185 23.9346C13.3332 24.0087 13.4813 24.1569 13.6295 24.305C13.7776 24.3791 13.9258 24.5272 13.9998 24.6013C14.148 24.6754 14.222 24.8235 14.2961 24.8976C14.3702 24.9717 14.4443 25.0457 14.5183 25.1198C14.6665 25.0457 14.7406 25.1198 14.7406 25.1939ZM13.5554 23.0458C12.5184 22.3791 12.4443 22.1569 11.6295 21.4162C10.8147 20.6754 11.3332 20.231 11.9999 20.7495C11.9999 20.7495 12.6665 21.6384 14.148 22.4532C15.5554 23.3421 14.5924 23.7124 13.5554 23.0458ZM16.5183 22.3791C16.5183 22.3791 16.4442 22.305 16.2961 22.231C16.148 22.1569 15.9257 22.0087 15.7035 21.8606C15.4813 21.7124 15.185 21.4902 14.8146 21.268C14.5183 21.0458 14.148 20.8236 13.8517 20.6013C13.5554 20.3791 13.2591 20.0828 12.9628 19.8606C12.6665 19.6384 12.4443 19.3421 12.2221 19.194C11.7776 18.7495 11.5554 18.4532 11.5554 18.4532C11.5554 18.4532 11.6295 18.5273 11.7776 18.6014C11.8517 18.6754 11.9258 18.7495 11.9999 18.8236C12.0739 18.8977 12.2221 18.9717 12.2961 19.0458C12.7406 19.4162 13.4072 19.8606 13.9998 20.3791C14.148 20.5273 14.2961 20.6013 14.4443 20.7495C14.5924 20.8976 14.7406 20.9717 14.8887 21.1199C15.0369 21.1939 15.185 21.3421 15.3331 21.4162C15.4813 21.4902 15.6294 21.6384 15.7035 21.7124C15.8517 21.7865 15.9257 21.8606 15.9998 22.0087C16.0739 22.0828 16.148 22.1569 16.222 22.231C16.4442 22.305 16.5183 22.3791 16.5183 22.3791ZM16.9628 14.6755L15.4813 13.7125L15.1109 14.2311L14.8146 14.0829L15.4072 13.194L17.185 14.3792L16.9628 14.6755ZM38.3699 22.7495C38.444 22.6013 38.5921 22.6013 38.7403 22.6754L39.9995 23.4902C39.9995 23.4902 39.0366 22.8976 38.3699 22.7495ZM38.1477 8.15705C38.2218 8.00891 38.5921 8.00891 38.6662 8.08298L39.8514 8.82371C39.8514 8.82371 38.8884 8.23113 38.1477 8.15705ZM32.2218 1.1201C32.2218 1.04603 32.2218 1.04603 32.2959 1.04603C32.2959 1.04603 32.2959 1.04603 32.2218 1.1201C32.2218 1.19417 32.2218 1.26825 32.2218 1.26825C32.2218 1.34232 32.2218 1.41639 32.2218 1.49047C32.2959 1.63861 32.37 1.78676 32.5181 1.86083C32.5181 1.86083 32.5181 1.86083 32.5922 1.86083H32.6663H32.7403C32.8144 1.86083 32.8885 1.86083 32.9626 1.86083C33.0366 1.86083 33.1107 1.78676 33.1848 1.78676C33.3329 1.78676 33.407 1.71269 33.407 1.63861C33.4811 1.56454 33.4811 1.49047 33.4811 1.41639C33.4811 1.34232 33.4811 1.26825 33.4811 1.19417C33.4811 1.1201 33.4811 1.04603 33.407 0.971955C33.407 0.897882 33.3329 0.897882 33.3329 0.823809L33.2589 0.749736L33.3329 0.823809C33.407 0.897882 33.4811 0.971955 33.5551 1.1201C33.6292 1.26825 33.5551 1.49047 33.4811 1.63861C33.407 1.78676 33.1848 1.93491 32.9626 2.00898C32.7403 2.08305 32.5181 2.00898 32.37 1.86083C32.2218 1.71269 32.1478 1.56454 32.0737 1.41639C32.1478 1.34232 32.2218 1.19417 32.2218 1.1201ZM32.7403 3.41637L33.3329 5.93486L32.0737 4.52747L32.7403 3.41637ZM31.1848 2.37935L30.7404 3.046L30.2959 2.52749L31.1848 2.37935ZM29.333 1.78676C29.333 1.78676 29.4071 1.86083 29.4811 1.93491C29.5552 2.08305 29.7774 2.2312 29.9256 2.45342C30.0737 2.67564 30.2959 2.89786 30.5182 3.19415C30.7404 3.49044 30.9626 3.71266 31.1848 4.00896C31.407 4.30525 31.6292 4.60154 31.8515 4.82376C32.0737 5.12005 32.2218 5.34227 32.444 5.56449C32.5922 5.78671 32.7403 5.93486 32.8144 6.083C32.8885 6.23115 32.9626 6.30522 32.9626 6.30522L29.333 1.78676ZM32.6663 6.23115L31.407 5.41635L31.7033 4.97191L32.6663 6.23115ZM28.0737 3.49044C28.0737 3.49044 28.2219 3.56452 28.5182 3.78674C28.8145 3.93488 29.2589 4.23117 29.7774 4.52747C30.2959 4.82376 30.8885 5.19413 31.4811 5.56449C32.0737 5.93486 32.8144 6.3793 33.4811 6.82374C34.1477 7.26818 34.8144 7.71261 35.407 8.08298C35.9996 8.52742 36.5921 8.89779 37.1107 9.19408C37.6292 9.56444 37.9995 9.78666 38.2958 10.0089C38.5921 10.2311 38.7403 10.3052 38.7403 10.3052C38.7403 10.3052 36.0736 8.60149 33.407 6.89781C30.6663 5.2682 28.0737 3.56452 28.0737 3.49044ZM29.2589 20.4532L30.37 21.1939L30.1478 21.5643L26.3701 19.1199L26.5923 18.7495L27.6293 19.4162C27.9997 19.6384 28.5182 19.5643 28.7404 19.194L33.7774 11.4903C33.9996 11.12 33.9255 10.6015 33.5551 10.3792L32.5181 9.71259L32.5922 9.63852L32.7403 9.4163L36.5181 11.8607L36.2959 12.0089C36.2959 12.0829 36.2218 12.0829 36.2218 12.157L35.0366 11.4163C34.6662 11.1941 34.1477 11.2681 33.9255 11.6385L28.8885 19.3421C28.7404 19.7125 28.8885 20.231 29.2589 20.4532ZM29.8515 8.89779C30.1478 9.12 30.1478 9.04593 30.7404 9.49037C31.8515 10.2311 26.8145 16.0088 26.296 16.8236C25.7775 17.6384 24.9627 16.7495 24.5923 16.5273C24.2219 16.3051 24.9627 15.4162 25.4071 14.7496C25.8515 14.0829 28.7404 8.15705 29.8515 8.89779ZM28.4441 8.00891L28.5182 7.93483C28.6663 7.71261 28.8885 7.71261 29.1108 7.78669L32.1478 9.71259C32.0737 9.71259 29.6293 8.23113 28.4441 8.00891ZM26.0738 4.37932L26.8145 3.26822C26.8886 3.046 27.1849 2.97193 27.4071 3.12008C26.9626 3.19415 26.0738 4.37932 26.0738 4.37932ZM22.7405 15.2681L21.7775 14.6755L27.4071 5.93486L30.5182 7.93483L30.37 8.23113V8.3052L29.333 7.63854C28.9626 7.41632 28.4441 7.49039 28.2219 7.86076L23.1849 15.5644C22.9627 15.9347 23.0368 16.4532 23.4071 16.6755L24.4441 17.3421L24.2219 17.7125L22.5923 16.6014L22.9627 16.0088C23.1108 15.7866 23.0368 15.4162 22.7405 15.2681ZM33.1848 24.0087C32.8885 23.7865 32.444 23.5643 31.9255 23.268C31.407 22.9717 30.8144 22.6013 30.1478 22.1569C29.4811 21.7124 28.8145 21.268 28.1478 20.8976C27.4811 20.4532 26.8145 20.0088 26.1478 19.5643C25.4812 19.1199 24.8886 18.7495 24.3701 18.3792C23.8516 18.0088 23.4071 17.7125 23.1108 17.5643C22.8145 17.3421 22.6664 17.2681 22.6664 17.2681C22.6664 17.2681 22.8145 17.3421 23.1108 17.5643C23.4071 17.7866 23.8516 18.0088 24.3701 18.3792C24.8886 18.6754 25.4812 19.0458 26.1478 19.4902C26.8145 19.9347 27.4811 20.3791 28.1478 20.7495C28.8145 21.1939 29.4811 21.6384 30.1478 22.0828C30.8144 22.5273 31.407 22.8976 31.9255 23.268C32.5181 23.4902 32.8885 23.7865 33.1848 24.0087C33.4811 24.1569 33.6292 24.305 33.6292 24.305C33.6292 24.305 33.4811 24.2309 33.1848 24.0087ZM33.8514 24.0087L32.2218 22.9717L32.444 22.6013L33.407 23.1939C33.7774 23.4161 34.2959 23.3421 34.5181 22.9717L33.8514 24.0087ZM32.0737 20.4532C31.5552 21.268 30.7404 20.3791 30.37 20.1569C29.9996 19.9347 30.7404 19.0458 31.1848 18.3792C31.6292 17.7125 34.5181 11.7866 35.6292 12.5274C35.9255 12.7496 35.9255 12.6755 36.5181 13.12C37.5551 13.8607 32.5922 19.7125 32.0737 20.4532ZM34.2959 11.8607L34.37 11.7866C34.5181 11.5644 34.7403 11.5644 34.9625 11.6385L37.9995 13.5644C37.9995 13.5644 35.5551 12.0829 34.2959 11.8607ZM39.5551 15.194C39.7773 14.8236 39.7032 14.3051 39.3329 14.0829L38.3699 13.4903L38.444 13.4162L38.5921 13.194L40.2217 14.2311L39.5551 15.194ZM44.8883 12.6755C44.9624 12.5274 45.1106 12.5274 45.2587 12.6014L46.518 13.4162C46.518 13.4162 45.555 12.8237 44.8883 12.6755Z" fill="white"/>
</svg>
